<svg id="Layer_1" data-name="Layer 1" xmlns="http://www.w3.org/2000/svg" viewBox="0 0 657.78 244.67"><defs><style>.cls-1{fill:#7597aa;}.cls-2{fill:#ff722c;}</style></defs><title>biohug</title><path class="cls-1" d="M42.21,52h89.1c30.36,0,43.56,20.24,43.56,37.4,0,18.26-10.78,30.58-25.08,33.66,15.84,2.42,27.94,16.94,27.94,35.86,0,20.46-13.86,39.82-43.34,39.82H42.21ZM121,106.16a8.68,8.68,0,0,0,8.8-8.8c0-5.06-4.18-8.36-8.8-8.36H86.65v17.16Zm1.32,55.66c6.38,0,10.34-3.74,10.34-9.24,0-5.28-4-9.46-10.34-9.46H86.65v18.7Z" transform="translate(-42.21 -40.38)"/><path class="cls-1" d="M186.75,62.6A22.22,22.22,0,1,1,209,84.82,22.16,22.16,0,0,1,186.75,62.6Zm2.42,29.92h39.6V198.78h-39.6Z" transform="translate(-42.21 -40.38)"/><path class="cls-1" d="M238,145.54c0-29.7,22-55.66,59.62-55.66,37.84,0,59.84,26,59.84,55.66s-22,55.88-59.84,55.88C260,201.42,238,175.24,238,145.54Zm78.76,0c0-11.66-6.82-20.68-19.14-20.68-12.1,0-18.92,9-18.92,20.68,0,11.88,6.82,20.9,18.92,20.9C310,166.44,316.77,157.42,316.77,145.54Z" transform="translate(-42.21 -40.38)"/><path class="cls-2" d="M491.67,134.64a16.36,16.36,0,0,1,8.59,10.5c.72,3.1-1,5-5.49,4.3a79.58,79.58,0,0,0-11-.72c-7.64,15-15.51,31.26-23.39,48.68-1.67,3.82-5.73,5-8.35.72-2.15-3.34-4.06-6.92-4.06-12.17,0-3.58,1-8.35,3.1-14.79,1.67-4.53,4.77-12.41,8.59-20.28-14.79,1.91-30.07,4.77-40.81,4.77C412,170,405,185.23,398.13,200.5c-1.67,4.06-6,5.25-8.83,1.19a20.21,20.21,0,0,1-4.06-12.41c0-6.92,2.39-14.08,12.41-37.7a18.31,18.31,0,0,1-7.64-7.16c-2.39-4.53-1-6.2,5.49-5.73,3.58.24,5,.72,7.64.72,14.79-30.78,36.51-70.4,46.53-84.71,3.82-5,7.4-4.3,10,.24a19.8,19.8,0,0,1,2.15,9.78c0,6.68-2.15,16-7.87,26.49l-25.53,46.53c15-2.15,27.2-5.25,40.33-6.44C484,101,504.56,64.48,514.1,51.83c4.29-5.49,7.88-4.77,10.26.48a21.16,21.16,0,0,1,2.15,9.07c0,6.68-2.39,15.75-9.31,27.68C502.17,115.79,496.92,125.09,491.67,134.64Z" transform="translate(-42.21 -40.38)"/><path class="cls-2" d="M565.41,203.13c-14.08,0-21.24-6.92-22.19-17.66-8.11,9.07-18.85,16.47-31,16.47s-16.94-9.07-16.94-19.33a46.59,46.59,0,0,1,3.1-16.47c5.25-15,17.42-38.9,32.21-59.66,3.1-4.06,7.4-3.58,10.26,0a17.75,17.75,0,0,1,3.58,11c0,9.78-17.42,37.47-25.77,55.84-4.29,9.55-5,18.37.24,18.37,6.2,0,18.85-16.23,31-35.32,14.08-22.91,20.28-39.14,28.88-50.11,3.34-4.53,7.16-5.49,10-1.43,2.39,3.34,3.58,7.16,3.58,12.41,0,8.11-5,18.61-13.36,32.45-6.92,11.22-16.23,27.44-16.23,36.75,0,4.29,1.43,6.68,4.53,6.68,7.88,0,20-16.47,28.64-31.5,2.39-4.06,6.44-4.77,8.35-.24,1,2.15,1.91,9.07-1.67,16C595.71,191,580.2,203.13,565.41,203.13Z" transform="translate(-42.21 -40.38)"/><path class="cls-2" d="M695.46,177.11c-9.07,14.08-25.53,23.62-45.1,30.78C637.71,238.68,620.29,275,601,284c-5.73,2.15-11.69,1.19-16.7-5.49-3.34-5-6.92-11.22-6.92-18.61,0-21.48,23.15-46.06,52.26-56.08l3.1-7.87a32.15,32.15,0,0,1-17.9,6c-13.6,0-21.48-9.78-21.48-24.1,0-34.12,40.33-73.5,63.71-73.5,7.87,0,13.12,4.3,15.27,10,1-1.67,2.39-4.06,3.82-6.68,2.86-5.49,7.16-5.25,10.26-1.67,2.15,2.63,3.82,7.16,3.82,12.17,0,6.44-2.62,12.89-8.59,24.82-7.64,15-17.18,32.45-25.06,50.59,14.79-9.07,26.73-19.09,36-32,3.1-4.06,7.4-4.06,7.4,1.19A26,26,0,0,1,695.46,177.11Zm-95.21,66.58c-6.92,11.69-10,22.91-7.64,25.06,2.15,1.67,8.11-5.49,15.51-18.37a220.73,220.73,0,0,0,14.56-30.78A81.22,81.22,0,0,0,600.25,243.69Zm48-86.15c9.31-16.23,13.6-27.92,13.6-34.12,0-2.86-.72-4.3-2.39-4.3-8.11,0-44.86,37.47-44.86,65.15,0,4.53,1,7.64,3.1,7.64C625.31,192.15,636.52,177.59,648.21,157.55Z" transform="translate(-42.21 -40.38)"/></svg>